# xmcd
#
# Track frame offsets: 
#        150
#        13705
#        45085
#        71330
#        86047
#        122152
#        126612
#        149710
#        169302
#        183312
#        200132
#        217202
#        248237
#        268257
#        278625
#
# Disc length: 3793 seconds
#
# Revision: 3
# Processed by: cddbd v1.5.2PL0 Copyright (c) Steve Scherf et al.
# Submitted via: ExactAudioCopy v0.99pb4
#
DISCID=f20ecf0f
DTITLE=Flávio Guimarães - Little Blues
DYEAR=1995
DGENRE=Blues
TTITLE0=Telephone Blues
TTITLE1=Take Five
TTITLE2=Blues Jam For Charlie
TTITLE3=Honest I Do
TTITLE4=Blue Stu
TTITLE5=Free Delay
TTITLE6=Hoochie Coochie Man
TTITLE7=Sick And Tired
TTITLE8=Surfing
TTITLE9=Baby Please Don't Go
TTITLE10=Hand Jive
TTITLE11=Na Baixa do Sapateiro
TTITLE12=Tin Sandwich Swing
TTITLE13=Russo's Blues
TTITLE14=Blues pra Márcia
EXTD=
EXTT0=
EXTT1=
EXTT2=
EXTT3=
EXTT4=
EXTT5=
EXTT6=
EXTT7=
EXTT8=
EXTT9=
EXTT10=
EXTT11=
EXTT12=
EXTT13=
EXTT14=
PLAYORDER=
